<svg width="329" height="326" viewBox="0 0 329 326" fill="none" xmlns="http://www.w3.org/2000/svg">
<path fill-rule="evenodd" clip-rule="evenodd" d="M166.752 4.84398C197.286 3.65719 228.498 -6.78979 256.141 7.27433C286.741 22.843 313.335 50.3336 324.195 84.9475C335.118 119.757 325.551 157.356 314.089 191.962C302.927 225.665 285.337 255.859 259.968 278.876C233.074 303.279 201.8 323.259 166.752 325.648C130.345 328.13 92.5314 317.527 64.5787 292.198C37.5609 267.717 29.7575 228.391 19.2718 192.012C8.92812 156.126 -8.02778 118.333 4.33817 83.2025C16.5553 48.4944 50.5375 29.1848 81.9155 14.0461C108.518 1.21123 137.637 5.97562 166.752 4.84398Z" fill="url(#paint0_linear)"/>
<defs>
<linearGradient id="paint0_linear" x1="47" y1="85.5" x2="240" y2="473" gradientUnits="userSpaceOnUse">
<stop stop-color="#50B895"/>
<stop offset="1" stop-color="#0064E5" stop-opacity="0.3"/>
</linearGradient>
</defs>
</svg>
