<svg width="502" height="483" viewBox="0 0 502 483" fill="none" xmlns="http://www.w3.org/2000/svg">
<path fill-rule="evenodd" clip-rule="evenodd" d="M313.093 -127.192C382.637 -146.325 454.223 -193.296 520.708 -165.328C589.084 -136.565 630.147 -60.1174 645.211 12.5172C659.509 81.4666 619.89 146.083 599.25 213.407C578.157 282.209 575.858 360.624 523.388 409.875C468 461.866 388.955 485.999 313.093 482.011C239.365 478.136 167.317 443.764 118.269 388.581C74.0237 338.8 83.2295 265.135 63.7282 201.452C44.7115 139.352 -19.0036 80.6274 5.55378 20.503C30.3411 -40.1844 115.557 -41.7424 174.65 -70.1216C220.774 -92.2724 263.759 -113.619 313.093 -127.192Z" fill="url(#paint0_linear)" fill-opacity="0.6"/>
<defs>
<linearGradient id="paint0_linear" x1="514.5" y1="-121" x2="591.5" y2="89" gradientUnits="userSpaceOnUse">
<stop stop-color="#0064E5"/>
<stop offset="1" stop-color="#50B895"/>
</linearGradient>
</defs>
</svg>
